<svg width="26" height="25" viewBox="0 0 26 25" fill="none" xmlns="http://www.w3.org/2000/svg">
<path id="Vector" fill-rule="evenodd" clip-rule="evenodd" d="M18.3656 16.1231L25.0903 22.8479C25.3266 23.0845 25.4593 23.4052 25.4592 23.7396C25.4591 24.074 25.3262 24.3947 25.0896 24.631C24.8531 24.8674 24.5324 25.0001 24.198 25C23.8636 24.9999 23.543 24.8669 23.3066 24.6304L16.5819 17.9055C14.5716 19.4626 12.0437 20.1953 9.5124 19.9547C6.98107 19.714 4.6365 18.5181 2.95565 16.6101C1.27479 14.7021 0.383901 12.2254 0.464224 9.6839C0.544547 7.14237 1.59004 4.7269 3.38803 2.92887C5.18601 1.13084 7.60143 0.0853203 10.1429 0.0049953C12.6844 -0.0753297 15.161 0.815578 17.0689 2.49648C18.9768 4.17738 20.1728 6.52201 20.4134 9.05339C20.6541 11.5848 19.9213 14.1128 18.3643 16.1231H18.3656ZM10.4597 17.4993C12.4487 17.4993 14.3563 16.7091 15.7627 15.3026C17.1692 13.8962 17.9593 11.9885 17.9593 9.99946C17.9593 8.01038 17.1692 6.10277 15.7627 4.69628C14.3563 3.28979 12.4487 2.49963 10.4597 2.49963C8.47066 2.49963 6.5631 3.28979 5.15664 4.69628C3.75018 6.10277 2.96004 8.01038 2.96004 9.99946C2.96004 11.9885 3.75018 13.8962 5.15664 15.3026C6.5631 16.7091 8.47066 17.4993 10.4597 17.4993Z" fill="#58585B"/>
</svg>
