<svg width="30" height="24" viewBox="0 0 30 24" fill="none" xmlns="http://www.w3.org/2000/svg">
<g id="Group 41">
<path id="Vector" d="M20.7967 2.88528C19.6602 2.88509 18.5689 3.31488 17.7578 4.08221C16.9466 4.84953 16.4803 5.89308 16.4591 6.9884L16.4172 9.2591C16.415 9.38114 16.386 9.50134 16.3321 9.6118C16.2782 9.72226 16.2007 9.82048 16.1046 9.90001C16.0085 9.97953 15.8961 10.0386 15.7747 10.0732C15.6533 10.1079 15.5256 10.1174 15.4001 10.1011L13.0638 9.79397C9.99302 9.39029 7.04941 8.02787 4.22396 5.76006C3.33101 10.5321 5.07653 13.838 9.28404 16.3884L11.8971 17.9714C12.021 18.0465 12.124 18.1497 12.1971 18.2721C12.2701 18.3944 12.311 18.5321 12.3162 18.6731C12.3213 18.8141 12.2906 18.9543 12.2267 19.0812C12.1628 19.2082 12.0676 19.3182 11.9494 19.4016L9.56823 21.0797C10.9847 21.1662 12.3294 21.1057 13.4452 20.8923C20.5021 19.5342 25.1942 14.4161 25.1942 5.97343C25.1942 5.28429 23.679 2.88528 20.7967 2.88528ZM13.4676 6.9365C13.4937 5.54676 13.9446 4.19532 14.7638 3.0514C15.5829 1.90747 16.734 1.0219 18.0729 0.505542C19.4117 -0.0108119 20.8789 -0.134994 22.2906 0.148545C23.7023 0.432084 24.9959 1.11074 26.0094 2.09955C27.0728 2.09234 27.9778 2.35185 30 1.1682C29.5004 3.53261 29.2521 4.56055 28.1857 5.97199C28.1857 16.9881 21.1602 22.347 14.03 23.718C9.14344 24.658 2.0342 23.114 0 21.0624C1.03655 20.986 5.25452 20.5492 7.69258 18.8278C5.62846 17.5158 -2.58015 12.8591 2.81498 0.342099C5.34726 3.19237 7.91544 5.13147 10.518 6.1623C12.2486 6.84711 12.6749 6.83269 13.4691 6.93794L13.4676 6.9365Z" fill="white"/>
</g>
</svg>
